<?xml version="1.0" standalone="no"?>
<!DOCTYPE svg PUBLIC "-//W3C//DTD SVG 20010904//EN"
 "http://www.w3.org/TR/2001/REC-SVG-20010904/DTD/svg10.dtd">
<svg version="1.0" xmlns="http://www.w3.org/2000/svg"
 width="480.000000pt" height="480.000000pt" viewBox="0 0 480.000000 480.000000"
 preserveAspectRatio="xMidYMid meet">

<g transform="translate(0.000000,480.000000) scale(0.100000,-0.100000)"
fill="#000000" stroke="none">
<path d="M0 2400 l0 -2400 2400 0 2400 0 0 2400 0 2400 -2400 0 -2400 0 0
-2400z m1568 498 l2 -298 200 0 200 0 2 298 3 297 195 0 195 0 0 -795 0 -795
-195 0 -195 0 -3 298 -2 297 -200 0 -200 0 -2 -297 -3 -298 -195 0 -195 0 -3
785 c-1 432 0 791 3 798 3 10 49 12 197 10 l193 -3 3 -297z m2197 -498 l0
-795 -595 0 -595 0 -3 785 c-1 432 0 791 3 798 3 10 128 12 597 10 l593 -3 0
-795z"/>
</g>
</svg>
